<svg xmlns="http://www.w3.org/2000/svg" version="1.1" xmlns:xlink="http://www.w3.org/1999/xlink" xmlns:svgjs="http://svgjs.com/svgjs" width="1440" height="560" preserveAspectRatio="none" viewBox="0 0 1440 560"><g mask="url(&quot;#SvgjsMask1301&quot;)" fill="none"><rect width="1440" height="560" x="0" y="0" fill="url(#SvgjsLinearGradient1302)"></rect><path d="M -255.49513469658945,285 C -111.5,261.8 176.5,162.6 464.50486530341055,169 C 752.5,175.4 896.5,329.2 1184.5048653034105,317 C 1472.5,304.8 1853.41,99.6 1904.5048653034105,108 C 1955.6,116.4 1532.9,308.8 1440,359" stroke="rgba(51, 121, 194, 0.58)" stroke-width="2"></path><path d="M -533.4586408355594,253 C -389.46,269 -101.46,362.6 186.5413591644405,333 C 474.54,303.4 618.54,93 906.5413591644406,105 C 1194.54,117 1519.85,377.6 1626.5413591644406,393 C 1733.23,408.4 1477.31,224.2 1440,182" stroke="rgba(51, 121, 194, 0.58)" stroke-width="2"></path><path d="M -1313.779893933424,124 C -1169.78,176 -881.78,379.4 -593.7798939334241,384 C -305.78,388.6 -161.78,159.8 126.22010606657591,147 C 414.22,134.2 583.46,315.2 846.2201060665759,320 C 1108.98,324.8 1321.24,200.8 1440,171" stroke="rgba(51, 121, 194, 0.58)" stroke-width="2"></path></g><defs><mask id="SvgjsMask1301"><rect width="1440" height="560" fill="#ffffff"></rect></mask><linearGradient x1="15.28%" y1="-39.29%" x2="84.72%" y2="139.29%" gradientUnits="userSpaceOnUse" id="SvgjsLinearGradient1302"><stop stop-color="#0e2a47" offset="0"></stop><stop stop-color="rgba(227, 227, 227, 1)" offset="1"></stop></linearGradient></defs></svg>