<svg xmlns="http://www.w3.org/2000/svg" version="1.1" xmlns:xlink="http://www.w3.org/1999/xlink" xmlns:svgjs="http://svgjs.com/svgjs" width="1440" height="300" preserveAspectRatio="none" viewBox="0 0 1440 300"><g mask="url(&quot;#SvgjsMask1337&quot;)" fill="none"><rect width="1440" height="300" x="0" y="0" fill="url(#SvgjsLinearGradient1338)"></rect><path d="M -1024.4623580638488,61 C -880.46,83.6 -592.46,164.4 -304.46235806384885,174 C -16.46,183.6 127.54,97.6 415.53764193615115,109 C 703.54,120.4 930.65,236 1135.5376419361512,231 C 1340.43,226 1379.11,113.4 1440,84" stroke="rgba(51, 121, 194, 0.58)" stroke-width="2"></path><path d="M -429.83376060455964,166 C -285.83,161 2.17,133 290.16623939544036,141 C 578.17,149 722.17,213.6 1010.1662393954404,206 C 1298.17,198.4 1644.2,107.4 1730.1662393954402,103 C 1816.13,98.6 1498.03,167.8 1440,184" stroke="rgba(51, 121, 194, 0.58)" stroke-width="2"></path><path d="M -255.20735503239268,111 C -111.21,123.8 176.79,185.8 464.7926449676073,175 C 752.79,164.2 896.79,52.2 1184.7926449676074,57 C 1472.79,61.8 1853.75,187.4 1904.7926449676074,199 C 1955.83,210.6 1532.96,131.8 1440,115" stroke="rgba(51, 121, 194, 0.58)" stroke-width="2"></path></g><defs><mask id="SvgjsMask1337"><rect width="1440" height="300" fill="#ffffff"></rect></mask><linearGradient x1="19.79%" y1="-95%" x2="80.21%" y2="195%" gradientUnits="userSpaceOnUse" id="SvgjsLinearGradient1338"><stop stop-color="#0e2a47" offset="0"></stop><stop stop-color="rgba(227, 227, 227, 1)" offset="1"></stop></linearGradient></defs></svg>