<svg xmlns="http://www.w3.org/2000/svg" version="1.1" xmlns:xlink="http://www.w3.org/1999/xlink" xmlns:svgjs="http://svgjs.com/svgjs" width="1440" height="300" preserveAspectRatio="none" viewBox="0 0 1440 300"><g mask="url(&quot;#SvgjsMask1629&quot;)" fill="none"><rect width="1440" height="300" x="0" y="0" fill="url(#SvgjsLinearGradient1630)"></rect><path d="M1440 0L1268.48 0L1440 88.5z" fill="rgba(255, 255, 255, .1)"></path><path d="M1268.48 0L1440 88.5L1440 135.15L624.12 0z" fill="rgba(255, 255, 255, .075)"></path><path d="M624.12 0L1440 135.15L1440 163.17000000000002L561.35 0z" fill="rgba(255, 255, 255, .05)"></path><path d="M561.35 0L1440 163.17000000000002L1440 181.71L395.90000000000003 0z" fill="rgba(255, 255, 255, .025)"></path><path d="M0 300L400.85 300L0 219.72z" fill="rgba(0, 0, 0, .1)"></path><path d="M0 219.72L400.85 300L917.26 300L0 217.7z" fill="rgba(0, 0, 0, .075)"></path><path d="M0 217.7L917.26 300L964.88 300L0 181.14999999999998z" fill="rgba(0, 0, 0, .05)"></path><path d="M0 181.15L964.88 300L1069.27 300L0 110.09z" fill="rgba(0, 0, 0, .025)"></path></g><defs><mask id="SvgjsMask1629"><rect width="1440" height="300" fill="#ffffff"></rect></mask><linearGradient x1="19.79%" y1="-95%" x2="80.21%" y2="195%" gradientUnits="userSpaceOnUse" id="SvgjsLinearGradient1630"><stop stop-color="rgba(14, 42, 71, 1)" offset="0"></stop><stop stop-color="rgba(255, 233, 134, 1)" offset="0"></stop></linearGradient></defs></svg>